<svg xmlns="http://www.w3.org/2000/svg" width="40" height="40" viewBox="0 0 40 40"><g><g><path fill="#d1232a" d="M20 0c11.046 0 20 8.954 20 20s-8.954 20-20 20S0 31.046 0 20 8.954 0 20 0z"/></g><g><path fill="#fff" d="M25.875 28h-12.75A2.125 2.125 0 0 1 11 25.875v-12.75c0-1.174.951-2.125 2.125-2.125h12.75c1.174 0 2.125.951 2.125 2.125v12.75A2.125 2.125 0 0 1 25.875 28zM19.5 16.206a3.292 3.292 0 0 0-2.987 1.913h-.003l-.015.036c-.03.07-.059.141-.085.214l-.038.103c-.024.074-.044.15-.063.225-.01.036-.02.07-.027.107-.018.08-.03.162-.041.244-.005.033-.012.066-.015.1a3.294 3.294 0 1 0 6.549 0c-.004-.034-.011-.067-.016-.1a3.291 3.291 0 0 0-.04-.244c-.008-.036-.019-.071-.028-.107a3.368 3.368 0 0 0-.063-.225l-.038-.103a3.259 3.259 0 0 0-.085-.214l-.015-.036h-.003a3.292 3.292 0 0 0-2.987-1.913zm6.587-2.444a.85.85 0 0 0-.85-.85h-1.7a.85.85 0 0 0-.85.85v1.7c0 .47.381.85.85.85h1.7c.47 0 .85-.38.85-.85zm0 4.357h-1.566a5.206 5.206 0 1 1-10.041 0h-1.568v7.118c0 .47.381.85.85.85h11.475c.47 0 .85-.38.85-.85z"/></g></g></svg>