<svg xmlns="http://www.w3.org/2000/svg" width="40" height="40" viewBox="0 0 40 40"><g><g><path fill="#d1232a" d="M20 0c11.046 0 20 8.954 20 20s-8.954 20-20 20S0 31.046 0 20 8.954 0 20 0z"/></g><g><path fill="#fff" d="M23.243 13c1.43-.025 2.192.474 2.92 1.11.616-.051 1.419-.382 1.891-.612l.46-.24c-.27.698-.636 1.245-1.199 1.66-.125.093-.249.217-.405.276v.009c.801-.009 1.462-.355 2.09-.543v.009a5.803 5.803 0 0 1-1.252 1.377l-.577.439c.01.813-.012 1.589-.171 2.272-.922 3.971-3.366 6.667-7.234 7.822-1.39.415-3.634.585-5.225.207-.79-.188-1.503-.4-2.172-.68a8.803 8.803 0 0 1-1.045-.516L11 25.4c.359.01.779.105 1.18.043.363-.056.72-.041 1.054-.112.836-.175 1.577-.407 2.216-.766.31-.173.78-.377 1-.628a3.247 3.247 0 0 1-1.099-.19c-1.194-.403-1.89-1.146-2.342-2.262.362.037 1.405.128 1.649-.07-.456-.023-.894-.276-1.208-.464-.96-.576-1.744-1.542-1.738-3.03l.378.173c.241.097.487.15.775.206.122.024.365.093.504.043h-.018c-.186-.207-.488-.345-.675-.568-.617-.734-1.195-1.864-.83-3.21a4.02 4.02 0 0 1 .397-.92l.018.008c.072.144.232.25.334.37.314.374.703.71 1.099 1.007 1.348 1.01 2.563 1.632 4.513 2.091a7.347 7.347 0 0 0 1.658.207c-.166-.463-.113-1.213.018-1.661.329-1.127 1.042-1.94 2.09-2.375.25-.104.528-.18.82-.241l.45-.052z"/></g></g></svg>